<svg version="1.1" xmlns="http://www.w3.org/2000/svg" viewBox="0 0 1003.503926363898 951.9509033534649" width="2007.007852727796" height="1903.9018067069298">
  <!-- svg-source:excalidraw -->
  
  <defs>
    <style class="style-fonts">
      @font-face {
        font-family: "Virgil";
        src: url("https://excalidraw.com/Virgil.woff2");
      }
      @font-face {
        font-family: "Cascadia";
        src: url("https://excalidraw.com/Cascadia.woff2");
      }
      @font-face {
        font-family: "Assistant";
        src: url("https://excalidraw.com/Assistant-Regular.woff2");
      }
    </style>
    
  </defs>
  <rect x="0" y="0" width="1003.503926363898" height="951.9509033534649" fill="#ffffff"></rect><g stroke-linecap="round" transform="translate(14.894037795936129 557.9587158534649) rotate(0 103.837890625 67.01171875)"><path d="M32 0 C71.02 0.45, 112.56 1.25, 175.68 0 M32 0 C65.11 -0.49, 98.6 -0.82, 175.68 0 M175.68 0 C196.77 0.96, 209.12 11.07, 207.68 32 M175.68 0 C195.35 0.14, 207.7 9.33, 207.68 32 M207.68 32 C206.13 52.43, 208.32 78.03, 207.68 102.02 M207.68 32 C206.22 47.69, 206.07 61.47, 207.68 102.02 M207.68 102.02 C209.1 121.97, 197.18 133.11, 175.68 134.02 M207.68 102.02 C208.46 122.46, 196.32 133.25, 175.68 134.02 M175.68 134.02 C146.59 133.11, 116.23 131.34, 32 134.02 M175.68 134.02 C137.74 134.56, 98.84 134.6, 32 134.02 M32 134.02 C10.57 132.46, 1.17 122.59, 0 102.02 M32 134.02 C9.94 132.4, -0.32 124.74, 0 102.02 M0 102.02 C0.14 79.99, -0.06 55.59, 0 32 M0 102.02 C-0.12 80.01, 0.15 58.99, 0 32 M0 32 C-0.53 11.58, 9.31 -0.52, 32 0 M0 32 C0.61 12.18, 11.06 -2.04, 32 0" stroke="#1e1e1e" stroke-width="2" fill="none"></path></g><g transform="translate(87.25341279593613 611.9157471034649) rotate(0 29.04998016357422 12.5)"><text x="0" y="0" font-family="Virgil, Segoe UI Emoji" font-size="20px" fill="#1e1e1e" text-anchor="start" style="white-space: pre;" direction="ltr" dominant-baseline="text-before-edge">Animal</text></g><g stroke-linecap="round" transform="translate(16.59911592093613 807.9274658534649) rotate(0 103.837890625 67.01171875)"><path d="M32 0 C74.62 -2.44, 118.07 -2.83, 175.68 0 M32 0 C86.05 0.19, 141.24 -1.22, 175.68 0 M175.68 0 C196.43 -1.33, 206.4 12.61, 207.68 32 M175.68 0 C196.78 -0.68, 209.27 9.34, 207.68 32 M207.68 32 C207.38 52.85, 207.71 71.6, 207.68 102.02 M207.68 32 C208.33 46.34, 207.26 60.52, 207.68 102.02 M207.68 102.02 C208.9 124.86, 196.76 133.62, 175.68 134.02 M207.68 102.02 C207.87 125.23, 197.33 136.28, 175.68 134.02 M175.68 134.02 C120.65 132.61, 68.59 133.69, 32 134.02 M175.68 134.02 C141.71 133.93, 106.56 133.57, 32 134.02 M32 134.02 C10.59 132.66, 0.45 121.54, 0 102.02 M32 134.02 C12.7 135.4, 0.16 123.53, 0 102.02 M0 102.02 C2.1 81.86, 1.39 59.3, 0 32 M0 102.02 C0.93 81.34, 0.03 59.56, 0 32 M0 32 C1.47 10.63, 10.95 0.94, 32 0 M0 32 C1.56 10.53, 11.68 1.03, 32 0" stroke="#1e1e1e" stroke-width="2" fill="none"></path></g><g transform="translate(88.95849092093613 861.8844971034649) rotate(0 17.339988708496094 12.5)"><text x="0" y="0" font-family="Virgil, Segoe UI Emoji" font-size="20px" fill="#1e1e1e" text-anchor="start" style="white-space: pre;" direction="ltr" dominant-baseline="text-before-edge">cat</text></g><g mask="url(#mask-ZiGnzrNHPvDgEYFjNPqR-)" stroke-linecap="round"><g transform="translate(116.62273954172394 694.1188721034649) rotate(0 1.8957919979396252 55.580078125)"><path d="M0.7 0.37 C1.28 19.03, 2.73 93.53, 3.28 112.08 M-0.39 -0.49 C0 17.85, 1.43 92.09, 2.06 110.45" stroke="#1e1e1e" stroke-width="2" fill="none"></path></g><g transform="translate(116.62273954172394 694.1188721034649) rotate(0 1.8957919979396252 55.580078125)"><path d="M-7.09 87.18 C-3.85 92.92, -0.31 100.8, 2.06 110.45 M-7.09 87.18 C-4.44 95.11, 0.2 103.21, 2.06 110.45" stroke="#1e1e1e" stroke-width="2" fill="none"></path></g><g transform="translate(116.62273954172394 694.1188721034649) rotate(0 1.8957919979396252 55.580078125)"><path d="M10.01 86.74 C8.36 92.7, 7.02 100.71, 2.06 110.45 M10.01 86.74 C6.75 94.65, 5.49 102.91, 2.06 110.45" stroke="#1e1e1e" stroke-width="2" fill="none"></path></g></g><mask id="mask-ZiGnzrNHPvDgEYFjNPqR-"><rect x="0" y="0" fill="#fff" width="220.4143235376032" height="905.2790283534649"></rect><rect x="102.2885434415191" y="737.198950228465" fill="#000" width="32.45997619628906" height="25" opacity="1"></rect></mask><g transform="translate(102.2885434415191 737.198950228465) rotate(0 15.780077770315017 12.71856534603981)"><text x="16.22998809814453" y="0" font-family="Virgil, Segoe UI Emoji" font-size="20px" fill="#1e1e1e" text-anchor="middle" style="white-space: pre;" direction="ltr" dominant-baseline="text-before-edge">new</text></g><g stroke-linecap="round" transform="translate(393.73583467093613 552.7204346034649) rotate(0 103.837890625 67.01171875)"><path d="M32 0 C88.12 1.77, 146.68 0.55, 175.68 0 M32 0 C83.95 -0.55, 134.99 -0.7, 175.68 0 M175.68 0 C198.75 -1.72, 208.95 9.96, 207.68 32 M175.68 0 C198.95 -0.97, 209.73 12.81, 207.68 32 M207.68 32 C208.86 53.96, 207.88 75.24, 207.68 102.02 M207.68 32 C208.56 48.86, 208.88 63.78, 207.68 102.02 M207.68 102.02 C207.94 124.41, 195.18 133.4, 175.68 134.02 M207.68 102.02 C209.26 124.13, 194.71 133.53, 175.68 134.02 M175.68 134.02 C145.49 133.38, 113.88 133.73, 32 134.02 M175.68 134.02 C119.46 133.3, 62.98 133.41, 32 134.02 M32 134.02 C11.16 134.14, -0.04 123.96, 0 102.02 M32 134.02 C12.03 134.2, 1.28 125.02, 0 102.02 M0 102.02 C-2.12 84.06, -1.59 61.25, 0 32 M0 102.02 C0.18 86.26, 0.77 69.61, 0 32 M0 32 C-1.83 10.35, 11.15 -0.23, 32 0 M0 32 C-2.06 11.55, 9.18 0.99, 32 0" stroke="#1e1e1e" stroke-width="2" fill="none"></path></g><g transform="translate(409.52099092093613 586.0212158534649) rotate(0 89.16992950439453 37.5)"><text x="0" y="0" font-family="Virgil, Segoe UI Emoji" font-size="20px" fill="#1e1e1e" text-anchor="start" style="white-space: pre;" direction="ltr" dominant-baseline="text-before-edge">{ </text><text x="0" y="25" font-family="Virgil, Segoe UI Emoji" font-size="20px" fill="#1e1e1e" text-anchor="start" style="white-space: pre;" direction="ltr" dominant-baseline="text-before-edge">  hobbies: ['eat'] </text><text x="0" y="50" font-family="Virgil, Segoe UI Emoji" font-size="20px" fill="#1e1e1e" text-anchor="start" style="white-space: pre;" direction="ltr" dominant-baseline="text-before-edge">}</text></g><g mask="url(#mask-g6_rnoGFDgF0zaXH2i36q)" stroke-linecap="round"><g transform="translate(222.47997529593613 622.9079346034649) rotate(0 84.529296875 -1.7324357730548172)"><path d="M-0.26 0.63 C27.7 0.13, 140.59 -1.88, 168.82 -2.72 M1.81 -0.08 C29.5 -0.96, 139.98 -3.86, 167.75 -4.46" stroke="#1e1e1e" stroke-width="2" fill="none"></path></g><g transform="translate(222.47997529593613 622.9079346034649) rotate(0 84.529296875 -1.7324357730548172)"><path d="M144.47 4.66 C154.53 0.78, 163.75 -2.24, 167.75 -4.46 M144.47 4.66 C149.54 1.65, 155.02 1.35, 167.75 -4.46" stroke="#1e1e1e" stroke-width="2" fill="none"></path></g><g transform="translate(222.47997529593613 622.9079346034649) rotate(0 84.529296875 -1.7324357730548172)"><path d="M144.05 -12.43 C154.32 -9.68, 163.7 -6.06, 167.75 -4.46 M144.05 -12.43 C149.15 -11.72, 154.72 -8.3, 167.75 -4.46" stroke="#1e1e1e" stroke-width="2" fill="none"></path></g></g><mask id="mask-g6_rnoGFDgF0zaXH2i36q"><rect x="0" y="0" fill="#fff" width="491.53856904593613" height="726.3728061495746"></rect><rect x="260.30932862845566" y="608.6754988304101" fill="#000" width="93.39988708496094" height="25" opacity="1"></rect></mask><g transform="translate(260.30932862845566 608.6754988304103) rotate(0 46.45240540616214 12.320112644173207)"><text x="46.69994354248047" y="0" font-family="Virgil, Segoe UI Emoji" font-size="20px" fill="#1e1e1e" text-anchor="middle" style="white-space: pre;" direction="ltr" dominant-baseline="text-before-edge">prototype</text></g><g mask="url(#mask-1fgxngFyXPoY_n6hx6d-w)" stroke-linecap="round"><g transform="translate(225.23778779593613 874.9235596034649) rotate(0 137.974609375 -94.611328125)"><path d="M-0.28 -0.43 C45.83 -32.11, 229.39 -158.78, 275.47 -190.1 M1.77 -1.7 C47.79 -33.25, 228.63 -157.61, 274.26 -189.02" stroke="#1e1e1e" stroke-width="2" fill="none"></path></g><g transform="translate(225.23778779593613 874.9235596034649) rotate(0 137.974609375 -94.611328125)"><path d="M259.76 -168.66 C261.95 -173.5, 264.11 -176.36, 274.26 -189.02 M259.76 -168.66 C264.7 -175.95, 270.89 -183.22, 274.26 -189.02" stroke="#1e1e1e" stroke-width="2" fill="none"></path></g><g transform="translate(225.23778779593613 874.9235596034649) rotate(0 137.974609375 -94.611328125)"><path d="M250.06 -182.75 C254.19 -184.75, 258.29 -184.79, 274.26 -189.02 M250.06 -182.75 C258.78 -184.72, 268.62 -186.68, 274.26 -189.02" stroke="#1e1e1e" stroke-width="2" fill="none"></path></g></g><mask id="mask-1fgxngFyXPoY_n6hx6d-w"><rect x="0" y="0" fill="#fff" width="601.1870065459361" height="1164.146215853465"></rect><rect x="304.21245057669785" y="767.812231478465" fill="#000" width="117.99989318847656" height="25" opacity="1"></rect></mask><g transform="translate(304.21245057669785 767.812231478465) rotate(0 58.618511546775665 11.848823933675874)"><text x="58.99994659423828" y="0" font-family="Virgil, Segoe UI Emoji" font-size="20px" fill="#1e1e1e" text-anchor="middle" style="white-space: pre;" direction="ltr" dominant-baseline="text-before-edge">__proto__</text></g><g stroke-linecap="round" transform="translate(10.098139358436129 302.8649658534649) rotate(0 103.837890625 67.01171875)"><path d="M32 0 C67.69 1.35, 106.58 1.5, 175.68 0 M32 0 C79.29 1.21, 129.09 1.15, 175.68 0 M175.68 0 C197.75 1.82, 208.28 9.56, 207.68 32 M175.68 0 C196.55 0.53, 205.98 10.07, 207.68 32 M207.68 32 C206.58 54.93, 208.96 80.62, 207.68 102.02 M207.68 32 C207.79 48.67, 207.45 66.63, 207.68 102.02 M207.68 102.02 C208.19 125.02, 197.17 133.91, 175.68 134.02 M207.68 102.02 C208.16 121.91, 198.88 135.49, 175.68 134.02 M175.68 134.02 C121 134.09, 69.63 133.17, 32 134.02 M175.68 134.02 C122.26 135.83, 67.67 135.77, 32 134.02 M32 134.02 C11.19 132.46, 1.18 122.6, 0 102.02 M32 134.02 C10.89 135.29, 1.03 124.11, 0 102.02 M0 102.02 C1.75 81.68, 0.95 59.75, 0 32 M0 102.02 C0.13 84.08, 0.73 64.04, 0 32 M0 32 C0.2 8.97, 11.77 -0.04, 32 0 M0 32 C-2.09 11.31, 9.76 -0.13, 32 0" stroke="#1e1e1e" stroke-width="2" fill="none"></path></g><g transform="translate(82.45751435843613 356.8219971034649) rotate(0 39.15996551513672 12.5)"><text x="0" y="0" font-family="Virgil, Segoe UI Emoji" font-size="20px" fill="#1e1e1e" text-anchor="start" style="white-space: pre;" direction="ltr" dominant-baseline="text-before-edge">Function</text></g><g mask="url(#mask-QWliVlPjlM3-wOlZy-ABQ)" stroke-linecap="round"><g transform="translate(111.82684110422406 439.0251221034649) rotate(0 1.8957919979396252 55.580078125)"><path d="M-1.16 0.1 C-0.59 18.79, 3.58 92.5, 4.48 111.19 M0.43 -0.89 C0.81 18.09, 3.35 94.18, 3.9 112.75" stroke="#1e1e1e" stroke-width="2" fill="none"></path></g><g transform="translate(111.82684110422406 439.0251221034649) rotate(0 1.8957919979396252 55.580078125)"><path d="M-5.39 89.54 C-1.8 99.78, 1.69 108.36, 3.9 112.75 M-5.39 89.54 C-1.88 98.89, 1.21 107.48, 3.9 112.75" stroke="#1e1e1e" stroke-width="2" fill="none"></path></g><g transform="translate(111.82684110422406 439.0251221034649) rotate(0 1.8957919979396252 55.580078125)"><path d="M11.71 89 C8.66 99.28, 5.52 108.07, 3.9 112.75 M11.71 89 C8.53 98.47, 4.93 107.27, 3.9 112.75" stroke="#1e1e1e" stroke-width="2" fill="none"></path></g></g><mask id="mask-QWliVlPjlM3-wOlZy-ABQ"><rect x="0" y="0" fill="#fff" width="215.6184251001033" height="650.1852783534649"></rect><rect x="97.4926450040191" y="482.1052002284649" fill="#000" width="32.45997619628906" height="25" opacity="1"></rect></mask><g transform="translate(97.4926450040191 482.10520022846504) rotate(0 15.99441948048775 12.8484777110815)"><text x="16.22998809814453" y="0" font-family="Virgil, Segoe UI Emoji" font-size="20px" fill="#1e1e1e" text-anchor="middle" style="white-space: pre;" direction="ltr" dominant-baseline="text-before-edge">new</text></g><g stroke-linecap="round" transform="translate(391.941426363898 294.81999258193855) rotate(0 103.837890625 67.01171875)"><path d="M32 0 C83.37 0.86, 130.86 1.36, 175.68 0 M32 0 C65.15 0.84, 97.23 0.73, 175.68 0 M175.68 0 C198.88 0.94, 206.67 11.32, 207.68 32 M175.68 0 C196.99 1.03, 206 8.97, 207.68 32 M207.68 32 C208.92 46.95, 207.53 62.74, 207.68 102.02 M207.68 32 C208.66 57.63, 208 81.55, 207.68 102.02 M207.68 102.02 C207.06 123.41, 196.09 134.78, 175.68 134.02 M207.68 102.02 C209.6 121.28, 195.55 136.25, 175.68 134.02 M175.68 134.02 C132.5 134.76, 90.17 132.7, 32 134.02 M175.68 134.02 C139.94 132.75, 105.49 133.04, 32 134.02 M32 134.02 C9.47 134.13, 0.56 124.86, 0 102.02 M32 134.02 C10.62 133.62, -0.16 121.55, 0 102.02 M0 102.02 C-1.64 80.45, -0.28 62.98, 0 32 M0 102.02 C-0.09 78.12, -1.19 55.82, 0 32 M0 32 C-0.44 8.76, 11.37 1.91, 32 0 M0 32 C-0.31 12.41, 8.67 -1.55, 32 0" stroke="#1e1e1e" stroke-width="2" fill="none"></path></g><g transform="translate(464.300801363898 348.77702383193855) rotate(0 30.03997039794922 12.5)"><text x="0" y="0" font-family="Virgil, Segoe UI Emoji" font-size="20px" fill="#1e1e1e" text-anchor="start" style="white-space: pre;" direction="ltr" dominant-baseline="text-before-edge">object</text></g><g mask="url(#mask-UFezJGWQA5Dc-BcnKlG_n)" stroke-linecap="round"><g transform="translate(220.91994198889802 365.24577383193855) rotate(0 84.412109375 -1.8057059152653778)"><path d="M1.13 -0.91 C29.19 -1.7, 141.02 -4.19, 169.17 -4.74 M0.27 1.22 C28.12 0.55, 140.13 -3.05, 168.4 -3.79" stroke="#1e1e1e" stroke-width="2" fill="none"></path></g><g transform="translate(220.91994198889802 365.24577383193855) rotate(0 84.412109375 -1.8057059152653778)"><path d="M145.17 5.45 C152.22 2.39, 160.44 0.38, 168.4 -3.79 M145.17 5.45 C151.8 3.76, 156.13 1.32, 168.4 -3.79" stroke="#1e1e1e" stroke-width="2" fill="none"></path></g><g transform="translate(220.91994198889802 365.24577383193855) rotate(0 84.412109375 -1.8057059152653778)"><path d="M144.66 -11.65 C151.9 -8.4, 160.3 -4.1, 168.4 -3.79 M144.66 -11.65 C151.57 -9.08, 156.03 -7.27, 168.4 -3.79" stroke="#1e1e1e" stroke-width="2" fill="none"></path></g></g><mask id="mask-UFezJGWQA5Dc-BcnKlG_n"><rect x="0" y="0" fill="#fff" width="489.744160738898" height="468.8571856624693"></rect><rect x="258.63210782141755" y="350.94006791667323" fill="#000" width="93.39988708496094" height="25" opacity="1"></rect></mask><g transform="translate(258.63210782141755 350.9400679166732) rotate(0 47.00520481001587 12.546645200736819)"><text x="46.69994354248047" y="0" font-family="Virgil, Segoe UI Emoji" font-size="20px" fill="#1e1e1e" text-anchor="middle" style="white-space: pre;" direction="ltr" dominant-baseline="text-before-edge">prototype</text></g><g mask="url(#mask-V_-61gMBSebNbyK6bwu89)" stroke-linecap="round"><g transform="translate(223.67775448889802 617.2613988319385) rotate(0 137.974609375 -94.611328125)"><path d="M1.19 -0.62 C47.3 -32.09, 231.06 -158.62, 277.04 -189.96 M0.35 1.67 C46.37 -29.56, 230.57 -156.75, 276.66 -188.81" stroke="#1e1e1e" stroke-width="2" fill="none"></path></g><g transform="translate(223.67775448889802 617.2613988319385) rotate(0 137.974609375 -94.611328125)"><path d="M262.21 -168.41 C266.12 -173.44, 270.66 -180.09, 276.66 -188.81 M262.21 -168.41 C267.32 -175.08, 271.61 -183.34, 276.66 -188.81" stroke="#1e1e1e" stroke-width="2" fill="none"></path></g><g transform="translate(223.67775448889802 617.2613988319385) rotate(0 137.974609375 -94.611328125)"><path d="M252.48 -182.47 C259.45 -182.98, 267.19 -185, 276.66 -188.81 M252.48 -182.47 C260.89 -184.3, 268.55 -187.68, 276.66 -188.81" stroke="#1e1e1e" stroke-width="2" fill="none"></path></g></g><mask id="mask-V_-61gMBSebNbyK6bwu89"><rect x="0" y="0" fill="#fff" width="599.626973238898" height="906.4840550819385"></rect><rect x="302.65241726965974" y="510.15007070693855" fill="#000" width="117.99989318847656" height="25" opacity="1"></rect></mask><g transform="translate(302.65241726965974 510.15007070693855) rotate(0 59.71881146829577 12.966335628218957)"><text x="58.99994659423828" y="0" font-family="Virgil, Segoe UI Emoji" font-size="20px" fill="#1e1e1e" text-anchor="middle" style="white-space: pre;" direction="ltr" dominant-baseline="text-before-edge">__proto__</text></g><g stroke-linecap="round" transform="translate(10 46.60227054096492) rotate(0 103.837890625 67.01171875)"><path d="M32 0 C74.32 0.81, 113.68 -0.17, 175.68 0 M32 0 C73.37 0.4, 115.18 0.79, 175.68 0 M175.68 0 C196.17 0.69, 205.77 12.55, 207.68 32 M175.68 0 C198.33 0.52, 207.53 8.46, 207.68 32 M207.68 32 C207.72 54.71, 208.35 80.35, 207.68 102.02 M207.68 32 C208.49 50.8, 208.86 66.97, 207.68 102.02 M207.68 102.02 C209.63 123.12, 196.34 133.34, 175.68 134.02 M207.68 102.02 C206.97 122.37, 195.4 133.53, 175.68 134.02 M175.68 134.02 C143.03 133.9, 105.49 135.51, 32 134.02 M175.68 134.02 C126.57 134.97, 79.05 134.32, 32 134.02 M32 134.02 C11.31 132.5, 1.22 121.6, 0 102.02 M32 134.02 C8.86 134.38, 1.28 122.47, 0 102.02 M0 102.02 C1.38 80.76, -0.14 62.79, 0 32 M0 102.02 C-0.3 82.58, 0.72 62.59, 0 32 M0 32 C1.34 12.3, 8.92 -0.07, 32 0 M0 32 C1.09 9.36, 10.78 0.94, 32 0" stroke="#1e1e1e" stroke-width="2" fill="none"></path></g><g transform="translate(82.359375 100.55930179096492) rotate(0 31.759971618652344 12.5)"><text x="0" y="0" font-family="Virgil, Segoe UI Emoji" font-size="20px" fill="#1e1e1e" text-anchor="start" style="white-space: pre;" direction="ltr" dominant-baseline="text-before-edge">Object</text></g><g mask="url(#mask-esuLgPfy_BhHdJTwIzON-)" stroke-linecap="round"><g transform="translate(111.72870174578793 182.76242679096492) rotate(0 1.8957919979396252 55.580078125)"><path d="M-0.4 -0.1 C0.14 18.46, 2.84 92.31, 3.44 110.86 M1.58 -1.2 C1.92 17.58, 2.22 93.28, 2.31 112.24" stroke="#1e1e1e" stroke-width="2" fill="none"></path></g><g transform="translate(111.72870174578793 182.76242679096492) rotate(0 1.8957919979396252 55.580078125)"><path d="M-6.35 88.79 C-3.89 95.62, -1.49 102.6, 2.31 112.24 M-6.35 88.79 C-4.27 96.23, -2.17 103.97, 2.31 112.24" stroke="#1e1e1e" stroke-width="2" fill="none"></path></g><g transform="translate(111.72870174578793 182.76242679096492) rotate(0 1.8957919979396252 55.580078125)"><path d="M10.75 88.71 C7.82 95.51, 4.84 102.51, 2.31 112.24 M10.75 88.71 C7.63 96.25, 4.53 104.01, 2.31 112.24" stroke="#1e1e1e" stroke-width="2" fill="none"></path></g></g><mask id="mask-esuLgPfy_BhHdJTwIzON-"><rect x="0" y="0" fill="#fff" width="215.52028574166718" height="393.9225830409649"></rect><rect x="97.39450564558297" y="225.84250491596492" fill="#000" width="32.45997619628906" height="25" opacity="1"></rect></mask><g transform="translate(97.39450564558297 225.84250491596492) rotate(0 15.851073218509612 12.440674491524696)"><text x="16.22998809814453" y="0" font-family="Virgil, Segoe UI Emoji" font-size="20px" fill="#1e1e1e" text-anchor="middle" style="white-space: pre;" direction="ltr" dominant-baseline="text-before-edge">new</text></g><g stroke-linecap="round" transform="translate(395.363301363898 32.10905508193855) rotate(0 103.837890625 67.01171875)"><path d="M32 0 C65.21 -0.93, 96.06 0.29, 175.68 0 M32 0 C76.23 0.56, 118.39 -0.03, 175.68 0 M175.68 0 C198.48 0.18, 208.32 9.67, 207.68 32 M175.68 0 C198.24 1.22, 208.63 11.44, 207.68 32 M207.68 32 C205.92 53.69, 208.54 74.55, 207.68 102.02 M207.68 32 C206.97 59.9, 207.31 86.86, 207.68 102.02 M207.68 102.02 C207.71 125.12, 197.77 133.76, 175.68 134.02 M207.68 102.02 C208.47 123.48, 195.45 133.27, 175.68 134.02 M175.68 134.02 C130.81 133.59, 87.55 133.41, 32 134.02 M175.68 134.02 C140.49 133.83, 108.13 135.38, 32 134.02 M32 134.02 C8.71 135.62, -0.71 122.04, 0 102.02 M32 134.02 C12.39 132.24, 2.08 122.2, 0 102.02 M0 102.02 C0.85 86.36, -0.91 71.21, 0 32 M0 102.02 C-0.63 81.2, -0.39 61.11, 0 32 M0 32 C0.26 11.85, 9.66 0.96, 32 0 M0 32 C-0.59 11.43, 11.49 1.66, 32 0" stroke="#1e1e1e" stroke-width="2" fill="none"></path></g><g transform="translate(467.722676363898 86.06608633193855) rotate(0 30.03997039794922 12.5)"><text x="0" y="0" font-family="Virgil, Segoe UI Emoji" font-size="20px" fill="#1e1e1e" text-anchor="start" style="white-space: pre;" direction="ltr" dominant-baseline="text-before-edge">object</text></g><g mask="url(#mask--Xby4c0skA4KIjfRtUlgw)" stroke-linecap="round"><g transform="translate(224.34181698889802 102.53483633193855) rotate(0 84.412109375 -1.8057059152653778)"><path d="M-0.44 0.02 C27.9 -0.43, 140.46 -3.06, 168.85 -3.54 M1.54 -1.01 C29.82 -1.17, 139.89 -1.33, 167.91 -1.96" stroke="#1e1e1e" stroke-width="2" fill="none"></path></g><g transform="translate(224.34181698889802 102.53483633193855) rotate(0 84.412109375 -1.8057059152653778)"><path d="M144.51 6.84 C149.36 5.17, 154.2 5.07, 167.91 -1.96 M144.51 6.84 C153.83 3.7, 161.96 -0.1, 167.91 -1.96" stroke="#1e1e1e" stroke-width="2" fill="none"></path></g><g transform="translate(224.34181698889802 102.53483633193855) rotate(0 84.412109375 -1.8057059152653778)"><path d="M144.33 -10.26 C149.1 -8.45, 153.98 -5.09, 167.91 -1.96 M144.33 -10.26 C153.65 -7.16, 161.86 -4.71, 167.91 -1.96" stroke="#1e1e1e" stroke-width="2" fill="none"></path></g></g><mask id="mask--Xby4c0skA4KIjfRtUlgw"><rect x="0" y="0" fill="#fff" width="493.166035738898" height="206.1462481624693"></rect><rect x="262.05398282141755" y="88.22913041667317" fill="#000" width="93.39988708496094" height="25" opacity="1"></rect></mask><g transform="translate(262.05398282141755 88.22913041667317) rotate(0 46.49333603866398 12.54918327443302)"><text x="46.69994354248047" y="0" font-family="Virgil, Segoe UI Emoji" font-size="20px" fill="#1e1e1e" text-anchor="middle" style="white-space: pre;" direction="ltr" dominant-baseline="text-before-edge">prototype</text></g><g mask="url(#mask-usgBkofe2ldgvC-KdyRtW)" stroke-linecap="round"><g transform="translate(227.09962948889802 354.55046133193855) rotate(0 137.974609375 -94.611328125)"><path d="M1.03 0.78 C46.95 -30.75, 229.56 -157.49, 275.53 -189.14 M0.11 0.15 C45.83 -31.18, 228.29 -156.25, 274.36 -187.57" stroke="#1e1e1e" stroke-width="2" fill="none"></path></g><g transform="translate(227.09962948889802 354.55046133193855) rotate(0 137.974609375 -94.611328125)"><path d="M259.79 -167.26 C265.48 -174.21, 268.7 -178.17, 274.36 -187.57 M259.79 -167.26 C264.75 -172.92, 269.14 -179.39, 274.36 -187.57" stroke="#1e1e1e" stroke-width="2" fill="none"></path></g><g transform="translate(227.09962948889802 354.55046133193855) rotate(0 137.974609375 -94.611328125)"><path d="M250.14 -181.38 C258.76 -184.15, 264.89 -183.85, 274.36 -187.57 M250.14 -181.38 C258.13 -182.64, 265.5 -184.74, 274.36 -187.57" stroke="#1e1e1e" stroke-width="2" fill="none"></path></g></g><mask id="mask-usgBkofe2ldgvC-KdyRtW"><rect x="0" y="0" fill="#fff" width="603.048848238898" height="643.7731175819385"></rect><rect x="306.07429226965974" y="247.43913320693855" fill="#000" width="117.99989318847656" height="25" opacity="1"></rect></mask><g transform="translate(306.07429226965974 247.43913320693855) rotate(0 58.84618210111739 12.93104622475802)"><text x="58.99994659423828" y="0" font-family="Virgil, Segoe UI Emoji" font-size="20px" fill="#1e1e1e" text-anchor="middle" style="white-space: pre;" direction="ltr" dominant-baseline="text-before-edge">__proto__</text></g><g stroke-linecap="round" transform="translate(785.828145113898 294.03874258193855) rotate(0 103.837890625 67.01171875)"><path d="M32 0 C62.04 -2.92, 91.77 -0.76, 175.68 0 M32 0 C62.46 -1.02, 92.89 -0.84, 175.68 0 M175.68 0 C198.38 0.28, 207.07 11.79, 207.68 32 M175.68 0 C196.69 0, 207.9 12.79, 207.68 32 M207.68 32 C209.09 58.26, 205.77 83.4, 207.68 102.02 M207.68 32 C207.27 49.4, 207 67.16, 207.68 102.02 M207.68 102.02 C208.31 123.29, 195.88 135.71, 175.68 134.02 M207.68 102.02 C208.85 125.37, 197.69 133.21, 175.68 134.02 M175.68 134.02 C127.75 132.12, 83.5 131.98, 32 134.02 M175.68 134.02 C146.31 133.07, 116.7 132.29, 32 134.02 M32 134.02 C9.11 135.27, -0.35 125.02, 0 102.02 M32 134.02 C11.26 134.58, 2.05 124, 0 102.02 M0 102.02 C1.34 88.43, 0.88 70.94, 0 32 M0 102.02 C0.98 82.62, 0.26 60.66, 0 32 M0 32 C-1.43 9.92, 9.64 -0.74, 32 0 M0 32 C-2.18 10, 12.38 1.94, 32 0" stroke="#1e1e1e" stroke-width="2" fill="none"></path></g><g transform="translate(858.187520113898 347.99577383193855) rotate(0 30.03997039794922 12.5)"><text x="0" y="0" font-family="Virgil, Segoe UI Emoji" font-size="20px" fill="#1e1e1e" text-anchor="start" style="white-space: pre;" direction="ltr" dominant-baseline="text-before-edge">object</text></g><g mask="url(#mask-S3fgv87MbnPW7I6Q99jRo)" stroke-linecap="round"><g transform="translate(107.13087948889802 44.48405508193855) rotate(0 389.65402692164025 107.52928072049781)"><path d="M0.24 -1.07 C99.87 -4.27, 466.85 -58.6, 596.73 -19.19 C726.6 20.21, 749 192.88, 779.48 235.34 M-1.1 0.99 C99.01 -2.54, 469.06 -60.11, 599.04 -20.82 C729.02 18.47, 748.64 193.78, 778.8 236.73" stroke="#1e1e1e" stroke-width="2" fill="none"></path></g><g transform="translate(107.13087948889802 44.48405508193855) rotate(0 389.65402692164025 107.52928072049781)"><path d="M761.97 218.24 C763.76 220.86, 770.69 226.33, 778.8 236.73 M761.97 218.24 C767.94 224.09, 772.2 230.27, 778.8 236.73" stroke="#1e1e1e" stroke-width="2" fill="none"></path></g><g transform="translate(107.13087948889802 44.48405508193855) rotate(0 389.65402692164025 107.52928072049781)"><path d="M777.79 211.75 C776.23 215.78, 779.8 222.62, 778.8 236.73 M777.79 211.75 C778.85 219.66, 778.18 227.86, 778.8 236.73" stroke="#1e1e1e" stroke-width="2" fill="none"></path></g></g><mask id="mask-S3fgv87MbnPW7I6Q99jRo"><rect x="0" y="0" fill="#fff" width="986.4389333321785" height="399.8276699798814"></rect><rect x="657.9169344858842" y="11.841528353464923" fill="#000" width="93.39988708496094" height="25" opacity="1"></rect></mask><g transform="translate(657.916934485884 11.841528353464923) rotate(0 -161.59479430555473 133.76404663017655)"><text x="46.69994354248047" y="0" font-family="Virgil, Segoe UI Emoji" font-size="20px" fill="#1e1e1e" text-anchor="middle" style="white-space: pre;" direction="ltr" dominant-baseline="text-before-edge">prototype</text></g><g mask="url(#mask--uN4UjYNJ4Jmd4hUdBLJ6)" stroke-linecap="round"><g transform="translate(610.443379488898 613.4304015232287) rotate(0 141.53515625 -93.08645447064507)"><path d="M0.17 0.14 C47.53 -30.99, 236.09 -154.8, 283.37 -185.82 M-1.2 -0.84 C46.09 -32.42, 235.13 -157.14, 282.59 -187.76" stroke="#1e1e1e" stroke-width="2" fill="none"></path></g><g transform="translate(610.443379488898 613.4304015232287) rotate(0 141.53515625 -93.08645447064507)"><path d="M267.6 -167.75 C271.22 -172, 275.12 -175.88, 282.59 -187.76 M267.6 -167.75 C272.23 -174.12, 277.17 -179.48, 282.59 -187.76" stroke="#1e1e1e" stroke-width="2" fill="none"></path></g><g transform="translate(610.443379488898 613.4304015232287) rotate(0 141.53515625 -93.08645447064507)"><path d="M258.24 -182.07 C264.19 -182.94, 270.31 -183.43, 282.59 -187.76 M258.24 -182.07 C265.77 -183.99, 273.65 -184.86, 282.59 -187.76" stroke="#1e1e1e" stroke-width="2" fill="none"></path></g></g><mask id="mask--uN4UjYNJ4Jmd4hUdBLJ6"><rect x="0" y="0" fill="#fff" width="993.513691988898" height="899.6033104645189"></rect><rect x="692.9785891446597" y="507.8439470525837" fill="#000" width="117.99989318847656" height="25" opacity="1"></rect></mask><g transform="translate(692.9785891446597 507.84394705258364) rotate(0 58.5516655524541 11.773000250114094)"><text x="58.99994659423828" y="0" font-family="Virgil, Segoe UI Emoji" font-size="20px" fill="#1e1e1e" text-anchor="middle" style="white-space: pre;" direction="ltr" dominant-baseline="text-before-edge">__proto__</text></g></svg>